# xmcd
#
# Track frame offsets: 
#        150
#        19923
#        44300
#        65446
#        89440
#        114717
#        134445
#        154112
#        177541
#        211872
#        262358
#        276360
#
# Disc length: 3980 seconds
#
# Revision: 0
# Processed by: cddbd v1.5.2PL0 Copyright (c) Steve Scherf et al.
# Submitted via: ExactAudioCopy v0.95b3
#
DISCID=b90f8a0c
DTITLE=Robert Plant  - Nine lives - The Principle of Moments [remaster
DTITLE=ed with bonus tracks]
DYEAR=1900
DGENRE=
TTITLE0=Other Arms
TTITLE1=In The Mood
TTITLE2=Messin' With the Mekon
TTITLE3=Wreckless Love
TTITLE4=Thru' With The Two Step
TTITLE5=Horizontal Departure
TTITLE6=Stranger Here....Than Over There
TTITLE7=Big Log
TTITLE8=In The Mood (Live)
TTITLE9=Thru' With The Two Step (Live)
TTITLE10=Lively Up Yourself (Live)
TTITLE11=Turnaround
EXTD=
EXTT0=
EXTT1=
EXTT2=
EXTT3=
EXTT4=
EXTT5=
EXTT6=
EXTT7=
EXTT8=
EXTT9=
EXTT10=
EXTT11=
PLAYORDER=
